<?xml version="1.0" encoding="utf-8"?>
<!-- Generator: Adobe Illustrator 22.1.0, SVG Export Plug-In . SVG Version: 6.00 Build 0)  -->
<svg version="1.1" id="Слой_1" xmlns="http://www.w3.org/2000/svg" xmlns:xlink="http://www.w3.org/1999/xlink" x="0px" y="0px"
	 viewBox="0 0 1920 1080" style="enable-background:new 0 0 1920 1080;" xml:space="preserve">
<style type="text/css">
	.st0{fill:#77B834;}
	.st1{fill:#FFFFFF;}
	.st2{fill:none;}
	.st3{font-family:'Montserrat-Black';}
	.st4{font-size:200px;}
</style>
<path class="st0" d="M349.2,344.2c2.2-3.1-0.6-3.9-0.6-3.9c-1.8-1.5-3.3,1.1-3.3,1.1l-13.6,20.2c-9.5-3.9-20.1-6.1-31.3-6.2
	c-11.6-0.1-22.6,2-32.5,6c-4.1-5.9-14.6-21-15.4-21.5c-0.9-0.6-2.2,0.6-2.2,0.6c-2.4,1.8-1.3,2.8-1.3,2.8l13.8,20.4
	c-21.1,10.2-36.3,29.3-39.2,52.5h151.4c-2.8-23.3-17.8-42.4-39-52.6"/>
<path class="st1" d="M340.5,387.4c0,4.7-3.8,8.4-8.4,8.4c-4.7,0-8.4-3.8-8.4-8.4c0-4.7,3.8-8.4,8.4-8.4
	C336.8,379,340.5,382.8,340.5,387.4z"/>
<path class="st1" d="M275.7,387.4c0,4.7-3.8,8.4-8.4,8.4c-4.7,0-8.4-3.8-8.4-8.4c0-4.7,3.8-8.4,8.4-8.4
	C271.9,379,275.7,382.8,275.7,387.4z"/>
<g>
	<rect x="227.8" y="427" class="st2" width="1166.7" height="390.1"/>
	<text transform="matrix(1 0 0 1 227.8271 575.361)" class="st0 st3 st4">YourDroid</text>
</g>
</svg>
